<svg width="46" height="37" viewBox="0 0 46 37" fill="none" xmlns="http://www.w3.org/2000/svg">
<path d="M46 26.3118C45.5859 27.4233 44.7397 27.8401 43.5515 27.7706C42.8673 27.7272 42.1832 27.7619 41.436 27.7619C42.2282 29.3163 42.3992 30.8534 41.8141 32.4338C41.283 33.8492 40.3468 34.9781 39.0775 35.8378C36.755 37.4096 34.0634 37.3835 31.7589 35.777C30.4446 34.8652 29.5084 33.6756 29.0223 32.1733C28.5272 30.6623 28.7523 29.2121 29.4814 27.7793C25.1515 27.7793 20.8755 27.7793 16.5366 27.7793C17.3468 29.3511 17.5088 30.9402 16.8517 32.5727C16.2845 33.9708 15.3303 35.0823 14.0431 35.9247C11.7025 37.4356 8.99296 37.3488 6.72446 35.6989C5.45519 34.7784 4.54599 33.5974 4.08689 32.1212C3.62779 30.6449 3.82583 29.2121 4.57299 27.7619C4.1409 27.7619 3.77182 27.7706 3.40274 27.7619C2.79061 27.7533 2.16947 27.788 1.56634 27.7012C0.657142 27.5796 0.0360078 26.8328 0 25.9557C0 25.8428 0 25.7213 0 25.6084C0 17.793 0 9.97763 0 2.15357C0 0.720753 0.729157 0.0173686 2.18747 0.0173686C11.5945 0.0173686 21.0016 0.0260512 30.3996 0C31.7409 0 32.6411 0.842323 32.6141 2.24909C32.5691 4.55897 32.6051 6.86885 32.6051 9.24819C32.7761 9.24819 32.9382 9.24819 33.0912 9.24819C34.7566 9.24819 36.4129 9.25687 38.0783 9.23951C38.8524 9.23082 39.4466 9.51738 39.9777 10.0471C41.634 11.6796 43.3264 13.2774 44.9738 14.91C45.3699 15.3008 45.6579 15.7957 46 16.2473C46 19.6079 46 22.9598 46 26.3118ZM28.7342 3.7427C20.4164 3.7427 12.1526 3.7427 3.87084 3.7427C3.87084 10.5247 3.87084 17.2807 3.87084 24.0366C12.1706 24.0366 20.4434 24.0366 28.7342 24.0366C28.7342 17.2633 28.7342 10.516 28.7342 3.7427ZM42.1382 24.0366C42.1472 23.9498 42.1652 23.8803 42.1652 23.8108C42.1652 21.7788 42.1742 19.7382 42.1562 17.7062C42.1562 17.5238 42.0211 17.298 41.8771 17.1591C40.5358 15.8392 39.1675 14.5453 37.8262 13.2253C37.6192 13.0169 37.4031 12.9475 37.1151 12.9561C36.1609 12.9735 35.1977 12.9648 34.2434 12.9648C33.7123 12.9648 33.1812 12.9648 32.6411 12.9648C32.6411 16.6902 32.6411 20.3634 32.6411 24.0366C35.8188 24.0366 38.9695 24.0366 42.1382 24.0366ZM10.5413 27.7793C10.4693 27.7793 10.3883 27.7793 10.3162 27.7793C9.08297 27.788 8.20078 28.3611 7.8407 29.3597C7.3906 30.6102 7.72368 32.0864 8.60587 32.7551C8.7589 32.868 8.92994 32.9722 9.10098 33.0417C10.0462 33.4064 11.0094 33.4237 11.9456 33.033C12.2967 32.8853 12.6658 32.6248 12.8728 32.3209C13.593 31.2702 13.602 30.1239 13.0618 29.0211C12.5757 28.0311 11.6215 27.7619 10.5413 27.7793ZM35.4587 27.788C35.3417 27.788 35.2157 27.788 35.0986 27.788C33.8744 27.814 32.9742 28.5001 32.6861 29.6203C32.326 31.0531 32.7851 32.3991 33.8294 32.9548C33.9374 33.0069 34.0454 33.059 34.1534 33.0938C35.0356 33.389 35.9268 33.4237 36.782 33.0677C37.1781 32.9027 37.5922 32.6248 37.8172 32.2862C38.5194 31.2528 38.5194 30.1152 37.9793 29.0211C37.4932 28.0224 36.5299 27.7619 35.4587 27.788Z" fill="#E00C32"/>
</svg>
