<svg width="41" height="41" viewBox="0 0 41 41" fill="none" xmlns="http://www.w3.org/2000/svg">
<path d="M26.4946 13.4586C26.6899 13.4586 26.8142 13.4586 26.9474 13.4586C29.6643 13.4586 32.3813 13.467 35.0982 13.4586C38.8806 13.4501 41.5176 16.4359 40.9139 19.9885C40.2124 24.15 39.5643 28.32 38.8895 32.4901C38.6941 33.6827 38.5343 34.8838 38.2946 36.068C37.8507 38.191 35.7108 40.1026 33.4556 40.4071C32.9318 40.4748 32.399 40.4748 31.8752 40.4748C25.3137 40.4833 18.7611 40.4748 12.1996 40.4748C10.1042 40.4748 8.00875 40.4748 5.90445 40.4748C2.71694 40.4748 0.00887888 37.8865 0 34.8415C0 30.7899 0 26.7383 0 22.6867C0 19.6248 2.70806 17.0449 5.93109 17.0449C7.18301 17.0449 8.44382 17.0365 9.69574 17.0534C10.0331 17.0619 10.1841 16.9519 10.3173 16.6643C12.5103 11.9361 14.7212 7.21625 16.9231 2.48798C17.6246 0.98238 18.2816 0.644042 19.9686 0.914712C23.6356 1.5068 26.4857 4.72101 26.4857 8.24818C26.4946 9.96524 26.4946 11.6823 26.4946 13.4586ZM13.265 36.8631C13.4693 36.8631 13.6202 36.8631 13.78 36.8631C20.0574 36.8631 26.3347 36.8631 32.6121 36.8631C32.7453 36.8631 32.8785 36.8631 33.0117 36.8546C33.8729 36.8039 34.3701 36.4063 34.5566 35.6028C34.6365 35.2475 34.6809 34.8838 34.743 34.5201C35.3468 30.7561 35.9594 26.9921 36.5632 23.2281C36.7941 21.8155 37.0072 20.3945 37.238 18.9735C37.3179 18.4829 37.1492 18.0769 36.8207 17.6878C36.4123 17.2141 35.9062 17.028 35.2669 17.028C31.7775 17.0365 28.297 17.0365 24.8076 17.028C23.458 17.028 22.7122 16.3091 22.7033 15.0065C22.7033 14.5413 22.7033 14.076 22.7033 13.6108C22.7033 11.6146 22.7388 9.61844 22.6767 7.62225C22.6323 6.2689 21.9486 5.24543 20.5901 4.69563C20.235 4.55184 20.0663 4.59413 19.8976 4.95784C17.7666 9.55923 15.6179 14.1522 13.4781 18.7451C13.3361 19.0411 13.265 19.3879 13.265 19.7178C13.2562 25.2581 13.2562 30.8068 13.2562 36.3471C13.265 36.5163 13.265 36.6685 13.265 36.8631ZM9.456 20.6567C8.15081 20.6567 6.89889 20.6482 5.64697 20.6567C4.38617 20.6652 3.80016 21.215 3.80016 22.4245C3.79128 26.6453 3.79128 30.8576 3.80016 35.0783C3.80016 36.3133 4.37729 36.8631 5.66473 36.8715C6.81898 36.88 7.96436 36.8715 9.11861 36.8715C9.23404 36.8715 9.34058 36.8546 9.456 36.8461C9.456 31.4412 9.456 26.0701 9.456 20.6567Z" fill="#E00C32"/>
</svg>
