<svg width="40" height="41" viewBox="0 0 40 41" fill="none" xmlns="http://www.w3.org/2000/svg">
<path d="M35.6996 0.800049H3.89961C1.79961 0.800049 0.0996094 2.50004 0.0996094 4.60004V31.3V32.6V36.4C0.0996094 38.5 1.79961 40.2 3.89961 40.2H35.6996C37.7996 40.2 39.4996 38.5 39.4996 36.4V7.40005V6.40005V4.60004C39.3996 2.50004 37.6996 0.800049 35.6996 0.800049ZM1.49961 4.50005C1.49961 3.20005 2.59961 2.10004 3.89961 2.10004H19.0996V3.40005H17.0996C16.6996 3.40005 16.3996 3.70004 16.3996 4.10004V6.80005C16.3996 7.20005 16.6996 7.50005 17.0996 7.50005H19.0996V8.80005H17.0996C16.6996 8.80005 16.3996 9.10005 16.3996 9.50005V12.2C16.3996 12.6 16.6996 12.9 17.0996 12.9H19.0996V14.2H17.0996C16.6996 14.2 16.3996 14.5 16.3996 14.9V17.6C16.3996 18 16.6996 18.3 17.0996 18.3H19.0996V19.6H17.0996C16.6996 19.6 16.3996 19.9 16.3996 20.3V22.3H14.9996V20.3C14.9996 19.9 14.6996 19.6 14.2996 19.6H11.5996C11.1996 19.6 10.8996 19.9 10.8996 20.3V22.3H9.59961V20.3C9.59961 19.9 9.29961 19.6 8.89961 19.6H6.19961C5.79961 19.6 5.49961 19.9 5.49961 20.3V22.3H4.19961V20.3C4.19961 19.9 3.89961 19.6 3.49961 19.6H1.49961V4.50005ZM19.0996 36.7V38.7H3.89961C2.59961 38.7 1.49961 37.6 1.49961 36.3V32.5V31.2V21.1H2.79961V23.1C2.79961 23.5 3.09961 23.8 3.49961 23.8H6.19961C6.59961 23.8 6.89961 23.5 6.89961 23.1V21.1H8.19961V23.1C8.19961 23.5 8.49961 23.8 8.89961 23.8H11.5996C11.9996 23.8 12.2996 23.5 12.2996 23.1V21.1H13.5996V23.1C13.5996 23.5 13.8996 23.8 14.2996 23.8H16.9996C17.3996 23.8 17.6996 23.5 17.6996 23.1V21.1H18.9996V23.1C18.9996 23.5 19.2996 23.8 19.6996 23.8H21.6996V25.1H19.6996C19.2996 25.1 18.9996 25.4 18.9996 25.8V28.5C18.9996 28.9 19.2996 29.2 19.6996 29.2H21.6996V30.5H19.6996C19.2996 30.5 18.9996 30.8 18.9996 31.2V33.9C18.9996 34.3 19.2996 34.6 19.6996 34.6H21.6996V35.9H19.6996C19.3996 36 19.0996 36.3 19.0996 36.7ZM38.0996 36.3C38.0996 37.6 36.9996 38.7 35.6996 38.7H20.4996V37.4H22.4996C22.8996 37.4 23.1996 37.1 23.1996 36.7V34C23.1996 33.6 22.8996 33.3 22.4996 33.3H20.4996V32H22.4996C22.8996 32 23.1996 31.7 23.1996 31.3V28.6C23.1996 28.2 22.8996 27.9 22.4996 27.9H20.4996V26.6H22.4996C22.8996 26.6 23.1996 26.3 23.1996 25.9V23.2C23.1996 22.8 22.8996 22.5 22.4996 22.5H20.4996V21.2H22.4996C22.8996 21.2 23.1996 20.9 23.1996 20.5V18.5H24.4996V20.5C24.4996 20.9 24.7996 21.2 25.1996 21.2H27.8996C28.2996 21.2 28.5996 20.9 28.5996 20.5V18.5H29.8996V20.5C29.8996 20.9 30.1996 21.2 30.5996 21.2H33.2996C33.6996 21.2 33.9996 20.9 33.9996 20.5V18.5H35.2996V20.5C35.2996 20.9 35.5996 21.2 35.9996 21.2H37.9996V36.3H38.0996ZM38.0996 19.7H36.7996V17.7C36.7996 17.3 36.4996 17 36.0996 17H33.3996C32.9996 17 32.6996 17.3 32.6996 17.7V19.7H31.3996V17.7C31.3996 17.3 31.0996 17 30.6996 17H27.9996C27.5996 17 27.2996 17.3 27.2996 17.7V19.7H25.9996V17.7C25.9996 17.3 25.6996 17 25.2996 17H22.5996C22.1996 17 21.8996 17.3 21.8996 17.7V19.7H20.5996V17.7C20.5996 17.3 20.2996 17 19.8996 17H17.8996V15.7H19.8996C20.2996 15.7 20.5996 15.4 20.5996 15V12.3C20.5996 11.9 20.2996 11.6 19.8996 11.6H17.8996V10.3H19.8996C20.2996 10.3 20.5996 10 20.5996 9.60004V6.90005C20.5996 6.50005 20.2996 6.20004 19.8996 6.20004H17.8996V4.90005H19.8996C20.2996 4.90005 20.5996 4.60004 20.5996 4.20004V2.20004H35.7996C37.0996 2.20004 38.1996 3.30004 38.1996 4.60004V6.40005V7.40005V19.7H38.0996Z" fill="#E00C32"/>
</svg>
