<svg width="35" height="35" viewBox="0 0 35 35" fill="none" xmlns="http://www.w3.org/2000/svg">
<path d="M33.1467 3.90792C32.9824 4.29144 32.8363 4.68409 32.6538 5.05847C32.5898 5.18631 32.462 5.28675 32.3525 5.39633C23.3605 14.3907 14.3685 23.3759 5.38563 32.3702C4.86528 32.8907 4.28103 33.1555 3.54159 33.0185C2.09009 32.7446 1.46019 31.0644 2.37309 29.9048C2.45525 29.7952 2.55566 29.7039 2.64695 29.6034C11.639 20.6091 20.6218 11.6239 29.6138 2.62954C30.1433 2.09992 30.7458 1.83512 31.5035 1.99035C32.3981 2.17297 33.0463 2.9674 33.1467 3.90792Z" fill="#E00C32"/>
<path d="M13.6021 6.7937C13.6112 10.291 10.3339 13.5874 6.83757 13.6057C3.33206 13.6239 0 10.3184 0 6.82109C0 3.31467 3.3138 0 6.81018 0C10.2974 0 13.593 3.2964 13.6021 6.7937ZM6.81018 3.89907C4.92049 3.89907 3.89805 4.90351 3.89805 6.78457C3.88892 8.68388 4.93875 9.73398 6.81931 9.72485C8.68161 9.71572 9.73144 8.65648 9.72231 6.7937C9.72231 4.93091 8.69074 3.89907 6.81018 3.89907Z" fill="#E00C32"/>
<path d="M21.398 28.1881C21.398 24.6908 24.6844 21.4036 28.1808 21.3944C31.6863 21.3853 35.0092 24.6908 35.0001 28.1973C35.0001 31.6945 31.668 35.0092 28.1625 35.0001C24.6844 34.991 21.3888 31.6854 21.398 28.1881ZM31.102 28.1881C31.102 26.3071 30.0705 25.2752 28.199 25.2752C26.3367 25.2752 25.2778 26.3253 25.2778 28.179C25.2686 30.0692 26.3185 31.1101 28.2173 31.101C30.0887 31.101 31.102 30.0783 31.102 28.1881Z" fill="#E00C32"/>
</svg>
