<svg width="39" height="41" viewBox="0 0 39 41" fill="none" xmlns="http://www.w3.org/2000/svg">
<path d="M38.991 20.677C38.991 23.26 39.016 25.8431 38.9827 28.4261C38.9577 30.6526 37.8931 32.3165 35.7971 33.3228C31.2307 35.5175 26.656 37.6806 22.0813 39.8596C20.3595 40.6836 18.6294 40.6836 16.9077 39.8675C12.308 37.6806 7.70837 35.5096 3.12535 33.2911C1.07921 32.3006 0.0311927 30.6446 0.022875 28.4736C-0.0103955 23.2838 -0.00208093 18.086 0.0145543 12.8962C0.022872 10.638 1.09585 8.97413 3.23348 7.95201C7.77491 5.781 12.3247 3.61791 16.8744 1.45482C18.6378 0.614943 20.4011 0.622866 22.1644 1.47067C26.7225 3.64961 31.2889 5.80477 35.8386 7.99163C37.9014 8.98206 38.9577 10.6222 38.9827 12.817C39.016 15.4317 38.991 18.0544 38.991 20.677ZM3.55787 13.2528C3.55787 13.4667 3.55787 13.6093 3.55787 13.7519C3.55787 18.6645 3.57451 23.5849 3.54124 28.4974C3.53292 29.3769 3.88226 29.9078 4.70571 30.296C8.90611 32.2689 13.0899 34.2736 17.2737 36.2703C17.4067 36.3336 17.5398 36.3812 17.7311 36.4604C17.7311 36.2782 17.7311 36.1514 17.7311 36.0246C17.7311 30.819 17.7311 25.6133 17.7394 20.4076C17.7394 20.0827 17.623 19.9243 17.3236 19.7817C12.8736 17.674 8.42369 15.5506 3.98207 13.435C3.86562 13.3875 3.74086 13.3399 3.55787 13.2528ZM21.2661 36.4604C21.4574 36.3812 21.5822 36.3336 21.707 36.2703C25.924 34.2656 30.1327 32.2452 34.3498 30.2564C35.1316 29.8919 35.456 29.369 35.456 28.5449C35.4394 23.5849 35.4477 18.6328 35.4477 13.6727C35.4477 13.5459 35.4394 13.4271 35.4311 13.2607C35.2647 13.332 35.14 13.3875 35.0235 13.4429C30.5736 15.5585 26.1319 17.682 21.6737 19.7975C21.3743 19.9401 21.2661 20.0986 21.2661 20.4235C21.2744 25.6212 21.2744 30.811 21.2744 36.0088C21.2661 36.1356 21.2661 36.2703 21.2661 36.4604ZM5.787 10.5033C5.90345 10.5747 5.94504 10.6064 5.98662 10.6222C10.4116 12.7298 14.8283 14.8375 19.2616 16.9292C19.4113 17.0005 19.6691 16.9688 19.8272 16.8975C21.1913 16.2637 22.547 15.606 23.9028 14.9642C24.0442 14.9008 24.1856 14.8295 24.327 14.7582C24.2771 14.7028 24.2605 14.679 24.2355 14.6711C19.7773 12.5476 15.319 10.4162 10.8608 8.30064C10.7526 8.2531 10.578 8.23726 10.4782 8.2848C8.93107 8.9979 7.3923 9.73478 5.787 10.5033ZM14.6453 6.2881C14.7534 6.35149 14.82 6.39903 14.8948 6.43072C19.2865 8.5225 23.6866 10.6222 28.0866 12.7061C28.2363 12.7774 28.4942 12.7694 28.6522 12.6902C30.0828 12.0326 31.4968 11.3432 32.9191 10.6697C33.0023 10.6301 33.0772 10.5826 33.1687 10.5271C33.1188 10.4796 33.0938 10.4479 33.0605 10.432C28.7437 8.37195 24.4185 6.31979 20.0933 4.25971C19.6525 4.04578 19.2117 4.10124 18.7792 4.30725C17.8642 4.74304 16.9493 5.17882 16.0343 5.60669C15.5935 5.82854 15.136 6.0504 14.6453 6.2881Z" fill="#E00C32"/>
</svg>
